<svg width="20" height="23" viewBox="0 0 20 23" fill="none" xmlns="http://www.w3.org/2000/svg">
<path d="M9.99927 18.0031C10.197 18.0031 10.3904 17.9445 10.5548 17.8346C10.7193 17.7247 10.8475 17.5685 10.9231 17.3858C10.9988 17.2031 11.0186 17.002 10.9801 16.808C10.9415 16.614 10.8462 16.4359 10.7064 16.296C10.5665 16.1562 10.3883 16.0609 10.1944 16.0223C10.0004 15.9837 9.79931 16.0035 9.61658 16.0792C9.43386 16.1549 9.27768 16.2831 9.1678 16.4475C9.05792 16.612 8.99927 16.8053 8.99927 17.0031C8.99927 17.2683 9.10462 17.5227 9.29216 17.7102C9.4797 17.8978 9.73405 18.0031 9.99927 18.0031ZM14.9993 18.0031C15.197 18.0031 15.3904 17.9445 15.5548 17.8346C15.7193 17.7247 15.8475 17.5685 15.9231 17.3858C15.9988 17.2031 16.0186 17.002 15.9801 16.808C15.9415 16.614 15.8462 16.4359 15.7064 16.296C15.5665 16.1562 15.3883 16.0609 15.1944 16.0223C15.0004 15.9837 14.7993 16.0035 14.6166 16.0792C14.4339 16.1549 14.2777 16.2831 14.1678 16.4475C14.0579 16.612 13.9993 16.8053 13.9993 17.0031C13.9993 17.2683 14.1046 17.5227 14.2922 17.7102C14.4797 17.8978 14.7341 18.0031 14.9993 18.0031ZM14.9993 14.0031C15.197 14.0031 15.3904 13.9445 15.5548 13.8346C15.7193 13.7247 15.8475 13.5685 15.9231 13.3858C15.9988 13.2031 16.0186 13.002 15.9801 12.808C15.9415 12.614 15.8462 12.4359 15.7064 12.296C15.5665 12.1562 15.3883 12.0609 15.1944 12.0223C15.0004 11.9837 14.7993 12.0035 14.6166 12.0792C14.4339 12.1549 14.2777 12.2831 14.1678 12.4475C14.0579 12.612 13.9993 12.8053 13.9993 13.0031C13.9993 13.2683 14.1046 13.5227 14.2922 13.7102C14.4797 13.8978 14.7341 14.0031 14.9993 14.0031ZM9.99927 14.0031C10.197 14.0031 10.3904 13.9445 10.5548 13.8346C10.7193 13.7247 10.8475 13.5685 10.9231 13.3858C10.9988 13.2031 11.0186 13.002 10.9801 12.808C10.9415 12.614 10.8462 12.4359 10.7064 12.296C10.5665 12.1562 10.3883 12.0609 10.1944 12.0223C10.0004 11.9837 9.79931 12.0035 9.61658 12.0792C9.43386 12.1549 9.27768 12.2831 9.1678 12.4475C9.05792 12.612 8.99927 12.8053 8.99927 13.0031C8.99927 13.2683 9.10462 13.5227 9.29216 13.7102C9.4797 13.8978 9.73405 14.0031 9.99927 14.0031ZM16.9993 2.00311H15.9993V1.00311C15.9993 0.737896 15.8939 0.483542 15.7064 0.296006C15.5188 0.10847 15.2645 0.00311279 14.9993 0.00311279C14.7341 0.00311279 14.4797 0.10847 14.2922 0.296006C14.1046 0.483542 13.9993 0.737896 13.9993 1.00311V2.00311H5.99927V1.00311C5.99927 0.737896 5.89391 0.483542 5.70637 0.296006C5.51884 0.10847 5.26448 0.00311279 4.99927 0.00311279C4.73405 0.00311279 4.4797 0.10847 4.29216 0.296006C4.10462 0.483542 3.99927 0.737896 3.99927 1.00311V2.00311H2.99927C2.20362 2.00311 1.44056 2.31918 0.877947 2.88179C0.315338 3.4444 -0.000732422 4.20746 -0.000732422 5.00311V19.0031C-0.000732422 19.7988 0.315338 20.5618 0.877947 21.1244C1.44056 21.687 2.20362 22.0031 2.99927 22.0031H16.9993C17.7949 22.0031 18.558 21.687 19.1206 21.1244C19.6832 20.5618 19.9993 19.7988 19.9993 19.0031V5.00311C19.9993 4.20746 19.6832 3.4444 19.1206 2.88179C18.558 2.31918 17.7949 2.00311 16.9993 2.00311ZM17.9993 19.0031C17.9993 19.2683 17.8939 19.5227 17.7064 19.7102C17.5188 19.8978 17.2645 20.0031 16.9993 20.0031H2.99927C2.73405 20.0031 2.4797 19.8978 2.29216 19.7102C2.10462 19.5227 1.99927 19.2683 1.99927 19.0031V10.0031H17.9993V19.0031ZM17.9993 8.00311H1.99927V5.00311C1.99927 4.7379 2.10462 4.48354 2.29216 4.29601C2.4797 4.10847 2.73405 4.00311 2.99927 4.00311H3.99927V5.00311C3.99927 5.26833 4.10462 5.52268 4.29216 5.71022C4.4797 5.89776 4.73405 6.00311 4.99927 6.00311C5.26448 6.00311 5.51884 5.89776 5.70637 5.71022C5.89391 5.52268 5.99927 5.26833 5.99927 5.00311V4.00311H13.9993V5.00311C13.9993 5.26833 14.1046 5.52268 14.2922 5.71022C14.4797 5.89776 14.7341 6.00311 14.9993 6.00311C15.2645 6.00311 15.5188 5.89776 15.7064 5.71022C15.8939 5.52268 15.9993 5.26833 15.9993 5.00311V4.00311H16.9993C17.2645 4.00311 17.5188 4.10847 17.7064 4.29601C17.8939 4.48354 17.9993 4.7379 17.9993 5.00311V8.00311ZM4.99927 14.0031C5.19705 14.0031 5.39039 13.9445 5.55484 13.8346C5.71929 13.7247 5.84746 13.5685 5.92315 13.3858C5.99883 13.2031 6.01864 13.002 5.98005 12.808C5.94147 12.614 5.84623 12.4359 5.70637 12.296C5.56652 12.1562 5.38834 12.0609 5.19436 12.0223C5.00038 11.9837 4.79931 12.0035 4.61658 12.0792C4.43386 12.1549 4.27768 12.2831 4.1678 12.4475C4.05792 12.612 3.99927 12.8053 3.99927 13.0031C3.99927 13.2683 4.10462 13.5227 4.29216 13.7102C4.4797 13.8978 4.73405 14.0031 4.99927 14.0031ZM4.99927 18.0031C5.19705 18.0031 5.39039 17.9445 5.55484 17.8346C5.71929 17.7247 5.84746 17.5685 5.92315 17.3858C5.99883 17.2031 6.01864 17.002 5.98005 16.808C5.94147 16.614 5.84623 16.4359 5.70637 16.296C5.56652 16.1562 5.38834 16.0609 5.19436 16.0223C5.00038 15.9837 4.79931 16.0035 4.61658 16.0792C4.43386 16.1549 4.27768 16.2831 4.1678 16.4475C4.05792 16.612 3.99927 16.8053 3.99927 17.0031C3.99927 17.2683 4.10462 17.5227 4.29216 17.7102C4.4797 17.8978 4.73405 18.0031 4.99927 18.0031Z" fill="#333333"/>
</svg>
