<svg width="18" height="12" viewBox="0 0 18 12" fill="none" xmlns="http://www.w3.org/2000/svg">
<path d="M17 12H6C5.45 12 5 11.55 5 11C5 10.45 5.45 10 6 10H17C17.55 10 18 10.45 18 11C18 11.55 17.55 12 17 12ZM17 7H9C8.45 7 8 6.55 8 6C8 5.45 8.45 5 9 5H17C17.55 5 18 5.45 18 6C18 6.55 17.55 7 17 7ZM18 1C18 1.55 17.55 2 17 2H6C5.45 2 5 1.55 5 1C5 0.45 5.45 0 6 0H17C17.55 0 18 0.45 18 1ZM0.700001 8.88L3.58 6L0.700001 3.12C0.607418 3.02742 0.533978 2.91751 0.483873 2.79654C0.433769 2.67558 0.40798 2.54593 0.40798 2.415C0.40798 2.28407 0.433769 2.15442 0.483873 2.03346C0.533978 1.91249 0.607418 1.80258 0.700001 1.71C0.792583 1.61742 0.902493 1.54398 1.02346 1.49387C1.14442 1.44377 1.27407 1.41798 1.405 1.41798C1.53593 1.41798 1.66558 1.44377 1.78654 1.49387C1.90751 1.54398 2.01742 1.61742 2.11 1.71L5.7 5.3C5.7927 5.39251 5.86625 5.5024 5.91643 5.62338C5.96661 5.74435 5.99244 5.87403 5.99244 6.005C5.99244 6.13597 5.96661 6.26565 5.91643 6.38662C5.86625 6.5076 5.7927 6.61749 5.7 6.71L2.11 10.3C1.72 10.69 1.09 10.69 0.700001 10.3C0.320002 9.91 0.310001 9.27 0.700001 8.88Z" fill="#0E2E4A"/>
</svg>
