<svg width="18" height="18" viewBox="0 0 18 18" fill="none" xmlns="http://www.w3.org/2000/svg">
<path d="M8.99935 15.667H3.16602C2.945 15.667 2.73304 15.5792 2.57676 15.4229C2.42048 15.2666 2.33268 15.0547 2.33268 14.8337V3.16699C2.33268 2.94598 2.42048 2.73402 2.57676 2.57774C2.73304 2.42146 2.945 2.33366 3.16602 2.33366H7.33268V4.83366C7.33268 5.4967 7.59607 6.13259 8.06492 6.60143C8.53376 7.07027 9.16964 7.33366 9.83268 7.33366H12.3327V8.16699C12.3327 8.38801 12.4205 8.59997 12.5768 8.75625C12.733 8.91253 12.945 9.00033 13.166 9.00033C13.387 9.00033 13.599 8.91253 13.7553 8.75625C13.9116 8.59997 13.9993 8.38801 13.9993 8.16699V6.45033C13.9907 6.37377 13.9739 6.29835 13.9494 6.22533V6.15033C13.9093 6.06464 13.8558 5.98588 13.791 5.91699L8.79102 0.916992C8.72213 0.852172 8.64337 0.798726 8.55768 0.758659C8.53281 0.755126 8.50756 0.755126 8.48268 0.758659C8.39803 0.71011 8.30454 0.678946 8.20768 0.666992H3.16602C2.50297 0.666992 1.86709 0.930384 1.39825 1.39923C0.929408 1.86807 0.666016 2.50395 0.666016 3.16699V14.8337C0.666016 15.4967 0.929408 16.1326 1.39825 16.6014C1.86709 17.0703 2.50297 17.3337 3.16602 17.3337H8.99935C9.22036 17.3337 9.43232 17.2459 9.5886 17.0896C9.74489 16.9333 9.83268 16.7213 9.83268 16.5003C9.83268 16.2793 9.74489 16.0674 9.5886 15.9111C9.43232 15.7548 9.22036 15.667 8.99935 15.667ZM8.99935 3.50866L11.1577 5.66699H9.83268C9.61167 5.66699 9.39971 5.5792 9.24343 5.42291C9.08715 5.26663 8.99935 5.05467 8.99935 4.83366V3.50866ZM4.83268 5.66699C4.61167 5.66699 4.39971 5.75479 4.24343 5.91107C4.08715 6.06735 3.99935 6.27931 3.99935 6.50033C3.99935 6.72134 4.08715 6.9333 4.24343 7.08958C4.39971 7.24586 4.61167 7.33366 4.83268 7.33366H5.66602C5.88703 7.33366 6.09899 7.24586 6.25527 7.08958C6.41155 6.9333 6.49935 6.72134 6.49935 6.50033C6.49935 6.27931 6.41155 6.06735 6.25527 5.91107C6.09899 5.75479 5.88703 5.66699 5.66602 5.66699H4.83268ZM17.091 15.9087L16.116 14.942C16.4277 14.398 16.5524 13.7669 16.4711 13.1453C16.3898 12.5237 16.107 11.9459 15.666 11.5003C15.2602 11.0801 14.7372 10.7917 14.1652 10.6729C13.5932 10.5541 12.9987 10.6104 12.4591 10.8343C11.9195 11.0582 11.4598 11.4395 11.14 11.9284C10.8202 12.4173 10.655 12.9912 10.666 13.5753C10.6631 14.078 10.7917 14.5727 11.039 15.0103C11.2863 15.4479 11.6437 15.8133 12.0758 16.0702C12.5079 16.327 12.9996 16.4665 13.5022 16.4747C14.0048 16.4829 14.5008 16.3596 14.941 16.117L15.9077 17.092C15.9852 17.1701 16.0773 17.2321 16.1789 17.2744C16.2804 17.3167 16.3893 17.3385 16.4993 17.3385C16.6094 17.3385 16.7183 17.3167 16.8198 17.2744C16.9214 17.2321 17.0135 17.1701 17.091 17.092C17.1691 17.0145 17.2311 16.9224 17.2734 16.8208C17.3157 16.7193 17.3375 16.6103 17.3375 16.5003C17.3375 16.3903 17.3157 16.2814 17.2734 16.1798C17.2311 16.0783 17.1691 15.9861 17.091 15.9087ZM14.4494 14.4503C14.2113 14.6742 13.8969 14.7988 13.5702 14.7988C13.2435 14.7988 12.929 14.6742 12.691 14.4503C12.4616 14.2168 12.333 13.9027 12.3327 13.5753C12.331 13.411 12.3626 13.2479 12.4256 13.0961C12.4886 12.9443 12.5817 12.8068 12.6994 12.692C12.9215 12.471 13.2195 12.3429 13.5327 12.3337C13.7012 12.3233 13.87 12.3479 14.0285 12.4058C14.187 12.4638 14.3319 12.5539 14.4539 12.6705C14.576 12.7871 14.6726 12.9276 14.7378 13.0833C14.803 13.2391 14.8353 13.4065 14.8327 13.5753C14.8258 13.9062 14.6879 14.2209 14.4494 14.4503ZM9.83268 9.00033H4.83268C4.61167 9.00033 4.39971 9.08812 4.24343 9.2444C4.08715 9.40068 3.99935 9.61265 3.99935 9.83366C3.99935 10.0547 4.08715 10.2666 4.24343 10.4229C4.39971 10.5792 4.61167 10.667 4.83268 10.667H9.83268C10.0537 10.667 10.2657 10.5792 10.4219 10.4229C10.5782 10.2666 10.666 10.0547 10.666 9.83366C10.666 9.61265 10.5782 9.40068 10.4219 9.2444C10.2657 9.08812 10.0537 9.00033 9.83268 9.00033ZM8.16602 14.0003C8.38703 14.0003 8.59899 13.9125 8.75527 13.7562C8.91155 13.6 8.99935 13.388 8.99935 13.167C8.99935 12.946 8.91155 12.734 8.75527 12.5777C8.59899 12.4215 8.38703 12.3337 8.16602 12.3337H4.83268C4.61167 12.3337 4.39971 12.4215 4.24343 12.5777C4.08715 12.734 3.99935 12.946 3.99935 13.167C3.99935 13.388 4.08715 13.6 4.24343 13.7562C4.39971 13.9125 4.61167 14.0003 4.83268 14.0003H8.16602Z" fill="white"/>
</svg>
