<svg width="14" height="18" viewBox="0 0 14 18" fill="none" xmlns="http://www.w3.org/2000/svg">
<path d="M7.83398 10.667H4.50065C4.27964 10.667 4.06768 10.7548 3.9114 10.9111C3.75512 11.0674 3.66732 11.2793 3.66732 11.5003C3.66732 11.7213 3.75512 11.9333 3.9114 12.0896C4.06768 12.2459 4.27964 12.3337 4.50065 12.3337H7.83398C8.055 12.3337 8.26696 12.2459 8.42324 12.0896C8.57952 11.9333 8.66732 11.7213 8.66732 11.5003C8.66732 11.2793 8.57952 11.0674 8.42324 10.9111C8.26696 10.7548 8.055 10.667 7.83398 10.667ZM11.1673 2.33366H10.184C10.0121 1.84737 9.69393 1.42616 9.2732 1.12777C8.85248 0.829391 8.34977 0.668442 7.83398 0.666992H6.16732C5.65153 0.668442 5.14882 0.829391 4.7281 1.12777C4.30738 1.42616 3.98925 1.84737 3.81732 2.33366H2.83398C2.17094 2.33366 1.53506 2.59705 1.06622 3.06589C0.597377 3.53473 0.333984 4.17062 0.333984 4.83366V14.8337C0.333984 15.4967 0.597377 16.1326 1.06622 16.6014C1.53506 17.0703 2.17094 17.3337 2.83398 17.3337H11.1673C11.8304 17.3337 12.4662 17.0703 12.9351 16.6014C13.4039 16.1326 13.6673 15.4967 13.6673 14.8337V4.83366C13.6673 4.17062 13.4039 3.53473 12.9351 3.06589C12.4662 2.59705 11.8304 2.33366 11.1673 2.33366ZM5.33398 3.16699C5.33398 2.94598 5.42178 2.73402 5.57806 2.57774C5.73434 2.42146 5.9463 2.33366 6.16732 2.33366H7.83398C8.055 2.33366 8.26696 2.42146 8.42324 2.57774C8.57952 2.73402 8.66732 2.94598 8.66732 3.16699V4.00033H5.33398V3.16699ZM12.0007 14.8337C12.0007 15.0547 11.9129 15.2666 11.7566 15.4229C11.6003 15.5792 11.3883 15.667 11.1673 15.667H2.83398C2.61297 15.667 2.40101 15.5792 2.24473 15.4229C2.08845 15.2666 2.00065 15.0547 2.00065 14.8337V4.83366C2.00065 4.61264 2.08845 4.40068 2.24473 4.2444C2.40101 4.08812 2.61297 4.00033 2.83398 4.00033H3.66732V4.83366C3.66732 5.05467 3.75512 5.26663 3.9114 5.42291C4.06768 5.57919 4.27964 5.66699 4.50065 5.66699H9.50065C9.72166 5.66699 9.93363 5.57919 10.0899 5.42291C10.2462 5.26663 10.334 5.05467 10.334 4.83366V4.00033H11.1673C11.3883 4.00033 11.6003 4.08812 11.7566 4.2444C11.9129 4.40068 12.0007 4.61264 12.0007 4.83366V14.8337ZM9.50065 7.33366H4.50065C4.27964 7.33366 4.06768 7.42146 3.9114 7.57774C3.75512 7.73402 3.66732 7.94598 3.66732 8.16699C3.66732 8.38801 3.75512 8.59997 3.9114 8.75625C4.06768 8.91253 4.27964 9.00033 4.50065 9.00033H9.50065C9.72166 9.00033 9.93363 8.91253 10.0899 8.75625C10.2462 8.59997 10.334 8.38801 10.334 8.16699C10.334 7.94598 10.2462 7.73402 10.0899 7.57774C9.93363 7.42146 9.72166 7.33366 9.50065 7.33366Z" fill="white"/>
</svg>
