<svg width="78" height="77" viewBox="0 0 78 77" fill="none" xmlns="http://www.w3.org/2000/svg">
<path d="M38.9636 0C31.2471 0 23.6819 2.24046 17.3271 6.49734C10.8967 10.7542 5.90368 16.7288 2.95325 23.7489C0.00282637 30.769 -0.753694 38.5359 0.759345 46.0042C2.27238 53.4724 5.97933 60.3431 11.4263 65.7202C16.8732 71.0973 23.8332 74.7568 31.3984 76.2504C38.9636 77.744 46.8314 76.9972 53.9427 74.0846C61.054 71.172 67.1818 66.243 71.4183 59.895C75.6548 53.547 78 46.1535 78 38.5359C78 33.4576 77.0165 28.4539 75.0496 23.8236C73.0826 19.1186 70.2078 14.9364 66.5765 11.3517C62.9453 7.76693 58.6331 4.92902 53.9427 2.98728C49.1009 0.970867 44.0323 0 38.9636 0ZM38.9636 69.2303C32.7601 69.2303 26.7836 67.4379 21.6393 64.0772C16.495 60.7165 12.4854 55.8622 10.1402 50.261C7.79498 44.6599 7.18976 38.4613 8.40019 32.4867C9.61062 26.5121 12.5611 21.0603 16.9489 16.7288C21.3367 12.3972 26.8593 9.48462 32.9114 8.28971C38.9636 7.09479 45.2427 7.69225 50.9166 10.0074C56.5905 12.3225 61.5079 16.2807 64.9122 21.3591C68.3165 26.4374 70.1322 32.3373 70.1322 38.4613C70.1322 46.6016 66.8792 54.4432 60.9783 60.1937C55.1531 66.0189 47.2097 69.2303 38.9636 69.2303Z" fill="#C1292E"/>
<path d="M53.4915 25.5085C53.0389 25.056 52.4355 24.6788 51.8321 24.3771C51.2287 24.1509 50.5499 24 49.871 24C49.1922 24 48.5134 24.1509 47.91 24.3771C47.3066 24.6034 46.7032 25.056 46.2506 25.5085L39.5377 32.2214L32.8248 25.5085C31.8443 24.528 30.562 24 29.129 24C27.7713 24 26.4136 24.528 25.5085 25.5085C24.528 26.4891 24 27.7713 24 29.129C24 30.4866 24.528 31.8443 25.5085 32.8248L32.2214 39.5377L25.5085 46.2506C25.056 46.7032 24.6788 47.3066 24.3771 47.91C24.1509 48.5134 24 49.1922 24 49.871C24 50.5499 24.1509 51.2287 24.3771 51.8321C24.6034 52.4355 25.056 53.0389 25.5085 53.4915C25.9611 53.944 26.5645 54.3212 27.1679 54.6229C27.7713 54.8491 28.4501 55 29.129 55C29.8078 55 30.4866 54.8491 31.09 54.6229C31.6934 54.3966 32.2968 53.944 32.7494 53.4915L39.4623 46.7786L46.1752 53.4915C47.1557 54.472 48.438 55 49.871 55C51.2287 55 52.5864 54.472 53.4915 53.4915C54.472 52.5109 55 51.2287 55 49.871C55 48.5134 54.472 47.1557 53.4915 46.1752L46.7786 39.4623L53.4915 32.7494C53.944 32.2968 54.3212 31.6934 54.6229 31.09C54.8491 30.4866 55 29.8078 55 29.129C55 28.4501 54.8491 27.7713 54.6229 27.1679C54.3212 26.5645 53.944 25.9611 53.4915 25.5085Z" fill="#C1292E"/>
</svg>
