<svg width="18" height="18" viewBox="0 0 18 18" fill="none" xmlns="http://www.w3.org/2000/svg">
<path d="M16.4998 0.666504H1.49984C1.27882 0.666504 1.06686 0.754301 0.910582 0.910582C0.754301 1.06686 0.666504 1.27882 0.666504 1.49984V16.4998C0.666504 16.7209 0.754301 16.9328 0.910582 17.0891C1.06686 17.2454 1.27882 17.3332 1.49984 17.3332H16.4998C16.7209 17.3332 16.9328 17.2454 17.0891 17.0891C17.2454 16.9328 17.3332 16.7209 17.3332 16.4998V1.49984C17.3332 1.27882 17.2454 1.06686 17.0891 0.910582C16.9328 0.754301 16.7209 0.666504 16.4998 0.666504ZM8.16651 15.6665H2.33317V12.3332H8.16651V15.6665ZM8.16651 10.6665H2.33317V7.33317H8.16651V10.6665ZM15.6665 15.6665H9.83317V12.3332H15.6665V15.6665ZM15.6665 10.6665H9.83317V7.33317H15.6665V10.6665ZM15.6665 5.6665H2.33317V2.33317H15.6665V5.6665Z" fill="#0E2E4A"/>
</svg>
