<svg width="21" height="21" viewBox="0 0 21 21" fill="none" xmlns="http://www.w3.org/2000/svg">
<path d="M10.4609 20.5996C4.93794 20.5996 0.460938 16.1226 0.460938 10.5996C0.460938 5.07661 4.93794 0.599609 10.4609 0.599609C15.9839 0.599609 20.4609 5.07661 20.4609 10.5996C20.4609 16.1226 15.9839 20.5996 10.4609 20.5996ZM10.4609 18.5996C12.5827 18.5996 14.6175 17.7568 16.1178 16.2565C17.6181 14.7562 18.4609 12.7213 18.4609 10.5996C18.4609 8.47788 17.6181 6.44305 16.1178 4.94276C14.6175 3.44246 12.5827 2.59961 10.4609 2.59961C8.33921 2.59961 6.30437 3.44246 4.80408 4.94276C3.30379 6.44305 2.46094 8.47788 2.46094 10.5996C2.46094 12.7213 3.30379 14.7562 4.80408 16.2565C6.30437 17.7568 8.33921 18.5996 10.4609 18.5996ZM10.4609 5.59961C10.7262 5.59961 10.9805 5.70497 11.168 5.8925C11.3556 6.08004 11.4609 6.33439 11.4609 6.59961V11.5996C11.4609 11.8648 11.3556 12.1192 11.168 12.3067C10.9805 12.4943 10.7262 12.5996 10.4609 12.5996C10.1957 12.5996 9.94137 12.4943 9.75383 12.3067C9.56629 12.1192 9.46094 11.8648 9.46094 11.5996V6.59961C9.46094 6.33439 9.56629 6.08004 9.75383 5.8925C9.94137 5.70497 10.1957 5.59961 10.4609 5.59961ZM10.4609 15.5996C10.1957 15.5996 9.94137 15.4943 9.75383 15.3067C9.56629 15.1192 9.46094 14.8648 9.46094 14.5996C9.46094 14.3344 9.56629 14.08 9.75383 13.8925C9.94137 13.705 10.1957 13.5996 10.4609 13.5996C10.7262 13.5996 10.9805 13.705 11.168 13.8925C11.3556 14.08 11.4609 14.3344 11.4609 14.5996C11.4609 14.8648 11.3556 15.1192 11.168 15.3067C10.9805 15.4943 10.7262 15.5996 10.4609 15.5996Z" fill="#2B8DE3"/>
</svg>
