<svg width="18" height="18" viewBox="0 0 18 18" fill="none" xmlns="http://www.w3.org/2000/svg">
<path d="M16.4993 0.666992H1.49935C1.27834 0.666992 1.06637 0.75479 0.910093 0.91107C0.753813 1.06735 0.666016 1.27931 0.666016 1.50033V16.5003C0.666016 16.7213 0.753813 16.9333 0.910093 17.0896C1.06637 17.2459 1.27834 17.3337 1.49935 17.3337H16.4993C16.7204 17.3337 16.9323 17.2459 17.0886 17.0896C17.2449 16.9333 17.3327 16.7213 17.3327 16.5003V1.50033C17.3327 1.27931 17.2449 1.06735 17.0886 0.91107C16.9323 0.75479 16.7204 0.666992 16.4993 0.666992ZM8.16602 15.667H2.33268V12.3337H8.16602V15.667ZM8.16602 10.667H2.33268V7.33366H8.16602V10.667ZM15.666 15.667H9.83268V12.3337H15.666V15.667ZM15.666 10.667H9.83268V7.33366H15.666V10.667ZM15.666 5.66699H2.33268V2.33366H15.666V5.66699Z" fill="white"/>
</svg>
