<svg width="14" height="14" viewBox="0 0 14 14" fill="none" xmlns="http://www.w3.org/2000/svg">
<path d="M1.58325 13.8541C1.18047 13.8541 0.840196 13.7153 0.562419 13.4375C0.284641 13.1597 0.145752 12.8194 0.145752 12.4166C0.145752 12.0139 0.284641 11.6736 0.562419 11.3958C0.840196 11.118 1.18047 10.9791 1.58325 10.9791C1.98603 10.9791 2.32631 11.118 2.60408 11.3958C2.88186 11.6736 3.02075 12.0139 3.02075 12.4166C3.02075 12.8194 2.88186 13.1597 2.60408 13.4375C2.32631 13.7153 1.98603 13.8541 1.58325 13.8541ZM6.99992 13.8541C6.59714 13.8541 6.25686 13.7153 5.97908 13.4375C5.70131 13.1597 5.56242 12.8194 5.56242 12.4166C5.56242 12.0139 5.70131 11.6736 5.97908 11.3958C6.25686 11.118 6.59714 10.9791 6.99992 10.9791C7.4027 10.9791 7.74297 11.118 8.02075 11.3958C8.29853 11.6736 8.43742 12.0139 8.43742 12.4166C8.43742 12.8194 8.29853 13.1597 8.02075 13.4375C7.74297 13.7153 7.4027 13.8541 6.99992 13.8541ZM12.4166 13.8541C12.0138 13.8541 11.6735 13.7153 11.3958 13.4375C11.118 13.1597 10.9791 12.8194 10.9791 12.4166C10.9791 12.0139 11.118 11.6736 11.3958 11.3958C11.6735 11.118 12.0138 10.9791 12.4166 10.9791C12.8194 10.9791 13.1596 11.118 13.4374 11.3958C13.7152 11.6736 13.8541 12.0139 13.8541 12.4166C13.8541 12.8194 13.7152 13.1597 13.4374 13.4375C13.1596 13.7153 12.8194 13.8541 12.4166 13.8541ZM1.58325 8.43748C1.18047 8.43748 0.840196 8.29859 0.562419 8.02081C0.284641 7.74304 0.145752 7.40276 0.145752 6.99998C0.145752 6.5972 0.284641 6.25692 0.562419 5.97915C0.840196 5.70137 1.18047 5.56248 1.58325 5.56248C1.98603 5.56248 2.32631 5.70137 2.60408 5.97915C2.88186 6.25692 3.02075 6.5972 3.02075 6.99998C3.02075 7.40276 2.88186 7.74304 2.60408 8.02081C2.32631 8.29859 1.98603 8.43748 1.58325 8.43748ZM6.99992 8.43748C6.59714 8.43748 6.25686 8.29859 5.97908 8.02081C5.70131 7.74304 5.56242 7.40276 5.56242 6.99998C5.56242 6.5972 5.70131 6.25692 5.97908 5.97915C6.25686 5.70137 6.59714 5.56248 6.99992 5.56248C7.4027 5.56248 7.74297 5.70137 8.02075 5.97915C8.29853 6.25692 8.43742 6.5972 8.43742 6.99998C8.43742 7.40276 8.29853 7.74304 8.02075 8.02081C7.74297 8.29859 7.4027 8.43748 6.99992 8.43748ZM12.4166 8.43748C12.0138 8.43748 11.6735 8.29859 11.3958 8.02081C11.118 7.74304 10.9791 7.40276 10.9791 6.99998C10.9791 6.5972 11.118 6.25692 11.3958 5.97915C11.6735 5.70137 12.0138 5.56248 12.4166 5.56248C12.8194 5.56248 13.1596 5.70137 13.4374 5.97915C13.7152 6.25692 13.8541 6.5972 13.8541 6.99998C13.8541 7.40276 13.7152 7.74304 13.4374 8.02081C13.1596 8.29859 12.8194 8.43748 12.4166 8.43748ZM1.58325 3.02081C1.18047 3.02081 0.840196 2.88192 0.562419 2.60415C0.284641 2.32637 0.145752 1.98609 0.145752 1.58331C0.145752 1.18054 0.284641 0.840257 0.562419 0.56248C0.840196 0.284702 1.18047 0.145813 1.58325 0.145813C1.98603 0.145813 2.32631 0.284702 2.60408 0.56248C2.88186 0.840257 3.02075 1.18054 3.02075 1.58331C3.02075 1.98609 2.88186 2.32637 2.60408 2.60415C2.32631 2.88192 1.98603 3.02081 1.58325 3.02081ZM6.99992 3.02081C6.59714 3.02081 6.25686 2.88192 5.97908 2.60415C5.70131 2.32637 5.56242 1.98609 5.56242 1.58331C5.56242 1.18054 5.70131 0.840257 5.97908 0.56248C6.25686 0.284702 6.59714 0.145813 6.99992 0.145813C7.4027 0.145813 7.74297 0.284702 8.02075 0.56248C8.29853 0.840257 8.43742 1.18054 8.43742 1.58331C8.43742 1.98609 8.29853 2.32637 8.02075 2.60415C7.74297 2.88192 7.4027 3.02081 6.99992 3.02081ZM12.4166 3.02081C12.0138 3.02081 11.6735 2.88192 11.3958 2.60415C11.118 2.32637 10.9791 1.98609 10.9791 1.58331C10.9791 1.18054 11.118 0.840257 11.3958 0.56248C11.6735 0.284702 12.0138 0.145813 12.4166 0.145813C12.8194 0.145813 13.1596 0.284702 13.4374 0.56248C13.7152 0.840257 13.8541 1.18054 13.8541 1.58331C13.8541 1.98609 13.7152 2.32637 13.4374 2.60415C13.1596 2.88192 12.8194 3.02081 12.4166 3.02081Z" fill="#333333"/>
</svg>
