<svg width="76" height="76" viewBox="0 0 76 76" fill="none" xmlns="http://www.w3.org/2000/svg">
<path d="M43.625 56.2812C43.625 57.3938 43.2951 58.4813 42.677 59.4063C42.0589 60.3314 41.1804 61.0523 40.1526 61.4781C39.1248 61.9038 37.9938 62.0152 36.9026 61.7982C35.8115 61.5811 34.8092 61.0454 34.0225 60.2587C33.2359 59.4721 32.7001 58.4698 32.4831 57.3786C32.2661 56.2875 32.3774 55.1565 32.8032 54.1287C33.2289 53.1008 33.9499 52.2223 34.8749 51.6042C35.8 50.9862 36.8875 50.6562 38 50.6562C39.4919 50.6562 40.9226 51.2489 41.9775 52.3038C43.0324 53.3587 43.625 54.7894 43.625 56.2812ZM75.9688 38C75.9688 45.5095 73.7419 52.8504 69.5699 59.0943C65.3978 65.3382 59.4679 70.2048 52.53 73.0786C45.5921 75.9523 37.9579 76.7042 30.5927 75.2392C23.2275 73.7742 16.4621 70.158 11.1521 64.848C5.84203 59.5379 2.22586 52.7725 0.760826 45.4073C-0.704207 38.0421 0.0477013 30.4079 2.92147 23.47C5.79523 16.5321 10.6618 10.6022 16.9057 6.43014C23.1496 2.25808 30.4905 0.03125 38 0.03125C48.0665 0.0424164 57.7175 4.04627 64.8356 11.1644C71.9538 18.2825 75.9576 27.9335 75.9688 38ZM67.5313 38C67.5313 32.1593 65.7993 26.4497 62.5544 21.5933C59.3094 16.7369 54.6973 12.9518 49.3011 10.7167C43.905 8.48153 37.9673 7.89672 32.2388 9.03618C26.5103 10.1757 21.2483 12.9882 17.1183 17.1183C12.9882 21.2483 10.1757 26.5102 9.0362 32.2387C7.89673 37.9672 8.48155 43.905 10.7167 49.3011C12.9519 54.6972 16.7369 59.3094 21.5933 62.5543C26.4497 65.7993 32.1593 67.5312 38 67.5312C45.8296 67.5229 53.3361 64.4089 58.8725 58.8725C64.4089 53.3361 67.5229 45.8296 67.5313 38ZM38 15.5C29.4711 15.5 22.5313 21.807 22.5313 29.5625V30.9688C22.5313 32.0876 22.9757 33.1607 23.7669 33.9519C24.5581 34.743 25.6311 35.1875 26.75 35.1875C27.8689 35.1875 28.942 34.743 29.7331 33.9519C30.5243 33.1607 30.9688 32.0876 30.9688 30.9688V29.5625C30.9688 26.4617 34.1328 23.9375 38 23.9375C41.8672 23.9375 45.0313 26.4617 45.0313 29.5625C45.0313 32.6633 41.8672 35.1875 38 35.1875C36.8811 35.1875 35.8081 35.632 35.0169 36.4231C34.2257 37.2143 33.7813 38.2874 33.7813 39.4062V42.2188C33.7788 43.261 34.1622 44.2674 34.8576 45.0437C35.553 45.8201 36.5112 46.3115 37.5475 46.4233C38.5838 46.5351 39.6248 46.2594 40.4698 45.6492C41.3148 45.039 41.904 44.1376 42.1238 43.1187C48.6559 41.4734 53.4688 36.0207 53.4688 29.5625C53.4688 21.807 46.5289 15.5 38 15.5Z" fill="#0E2E4A"/>
</svg>
