<svg width="16" height="18" viewBox="0 0 16 18" fill="none" xmlns="http://www.w3.org/2000/svg">
<path d="M14.6667 14.0003H13.8333V13.167C13.8333 12.946 13.7455 12.734 13.5893 12.5777C13.433 12.4215 13.221 12.3337 13 12.3337C12.779 12.3337 12.567 12.4215 12.4107 12.5777C12.2545 12.734 12.1667 12.946 12.1667 13.167V14.0003H11.3333C11.1123 14.0003 10.9004 14.0881 10.7441 14.2444C10.5878 14.4007 10.5 14.6126 10.5 14.8337C10.5 15.0547 10.5878 15.2666 10.7441 15.4229C10.9004 15.5792 11.1123 15.667 11.3333 15.667H12.1667V16.5003C12.1667 16.7213 12.2545 16.9333 12.4107 17.0896C12.567 17.2459 12.779 17.3337 13 17.3337C13.221 17.3337 13.433 17.2459 13.5893 17.0896C13.7455 16.9333 13.8333 16.7213 13.8333 16.5003V15.667H14.6667C14.8877 15.667 15.0996 15.5792 15.2559 15.4229C15.4122 15.2666 15.5 15.0547 15.5 14.8337C15.5 14.6126 15.4122 14.4007 15.2559 14.2444C15.0996 14.0881 14.8877 14.0003 14.6667 14.0003ZM8.83333 15.667H3C2.77899 15.667 2.56702 15.5792 2.41074 15.4229C2.25446 15.2666 2.16667 15.0547 2.16667 14.8337V3.16699C2.16667 2.94598 2.25446 2.73402 2.41074 2.57774C2.56702 2.42146 2.77899 2.33366 3 2.33366H7.16667V4.83366C7.16667 5.4967 7.43006 6.13259 7.8989 6.60143C8.36774 7.07027 9.00362 7.33366 9.66667 7.33366H12.1667V9.83366C12.1667 10.0547 12.2545 10.2666 12.4107 10.4229C12.567 10.5792 12.779 10.667 13 10.667C13.221 10.667 13.433 10.5792 13.5893 10.4229C13.7455 10.2666 13.8333 10.0547 13.8333 9.83366V6.45033C13.8247 6.37377 13.8079 6.29835 13.7833 6.22533V6.15033C13.7433 6.06464 13.6898 5.98588 13.625 5.91699L8.625 0.916992C8.55611 0.852172 8.47735 0.798726 8.39167 0.758659C8.3641 0.753833 8.3359 0.753833 8.30833 0.758659C8.2273 0.715328 8.14022 0.684427 8.05 0.666992H3C2.33696 0.666992 1.70107 0.930384 1.23223 1.39923C0.763392 1.86807 0.5 2.50395 0.5 3.16699V14.8337C0.5 15.4967 0.763392 16.1326 1.23223 16.6014C1.70107 17.0703 2.33696 17.3337 3 17.3337H8.83333C9.05435 17.3337 9.26631 17.2459 9.42259 17.0896C9.57887 16.9333 9.66667 16.7213 9.66667 16.5003C9.66667 16.2793 9.57887 16.0674 9.42259 15.9111C9.26631 15.7548 9.05435 15.667 8.83333 15.667ZM8.83333 3.50866L10.9917 5.66699H9.66667C9.44565 5.66699 9.23369 5.5792 9.07741 5.42291C8.92113 5.26663 8.83333 5.05467 8.83333 4.83366V3.50866ZM4.66667 5.66699C4.44565 5.66699 4.23369 5.75479 4.07741 5.91107C3.92113 6.06735 3.83333 6.27931 3.83333 6.50033C3.83333 6.72134 3.92113 6.9333 4.07741 7.08958C4.23369 7.24586 4.44565 7.33366 4.66667 7.33366H5.5C5.72101 7.33366 5.93297 7.24586 6.08926 7.08958C6.24554 6.9333 6.33333 6.72134 6.33333 6.50033C6.33333 6.27931 6.24554 6.06735 6.08926 5.91107C5.93297 5.75479 5.72101 5.66699 5.5 5.66699H4.66667ZM8.83333 12.3337H4.66667C4.44565 12.3337 4.23369 12.4215 4.07741 12.5777C3.92113 12.734 3.83333 12.946 3.83333 13.167C3.83333 13.388 3.92113 13.6 4.07741 13.7562C4.23369 13.9125 4.44565 14.0003 4.66667 14.0003H8.83333C9.05435 14.0003 9.26631 13.9125 9.42259 13.7562C9.57887 13.6 9.66667 13.388 9.66667 13.167C9.66667 12.946 9.57887 12.734 9.42259 12.5777C9.26631 12.4215 9.05435 12.3337 8.83333 12.3337ZM9.66667 9.00033H4.66667C4.44565 9.00033 4.23369 9.08812 4.07741 9.2444C3.92113 9.40068 3.83333 9.61265 3.83333 9.83366C3.83333 10.0547 3.92113 10.2666 4.07741 10.4229C4.23369 10.5792 4.44565 10.667 4.66667 10.667H9.66667C9.88768 10.667 10.0996 10.5792 10.2559 10.4229C10.4122 10.2666 10.5 10.0547 10.5 9.83366C10.5 9.61265 10.4122 9.40068 10.2559 9.2444C10.0996 9.08812 9.88768 9.00033 9.66667 9.00033Z" fill="white"/>
</svg>
