<svg width="17" height="18" viewBox="0 0 17 18" fill="none" xmlns="http://www.w3.org/2000/svg">
<path d="M4.83333 12.3337C5.16485 12.3337 5.4828 12.202 5.71722 11.9675C5.95164 11.7331 6.08333 11.4152 6.08333 11.0837C6.0874 11.0421 6.0874 11.0002 6.08333 10.9587L8.40833 8.63366H8.79167L10.1333 9.97533V10.042C10.1333 10.3735 10.265 10.6915 10.4994 10.9259C10.7339 11.1603 11.0518 11.292 11.3833 11.292C11.7149 11.292 12.0328 11.1603 12.2672 10.9259C12.5016 10.6915 12.6333 10.3735 12.6333 10.042V9.97533L15.6667 6.91699C15.9139 6.91699 16.1556 6.84368 16.3611 6.70633C16.5667 6.56898 16.7269 6.37375 16.8215 6.14535C16.9161 5.91694 16.9409 5.66561 16.8926 5.42313C16.8444 5.18065 16.7254 4.95792 16.5505 4.78311C16.3757 4.60829 16.153 4.48924 15.9105 4.44101C15.6681 4.39278 15.4167 4.41753 15.1883 4.51214C14.9599 4.60675 14.7647 4.76697 14.6273 4.97253C14.49 5.17809 14.4167 5.41977 14.4167 5.66699C14.4126 5.70856 14.4126 5.75042 14.4167 5.79199L11.4083 8.80033H11.275L9.83333 7.33366C9.83333 7.00214 9.70164 6.6842 9.46722 6.44978C9.2328 6.21535 8.91485 6.08366 8.58333 6.08366C8.25181 6.08366 7.93387 6.21535 7.69945 6.44978C7.46503 6.6842 7.33333 7.00214 7.33333 7.33366L4.83333 9.83366C4.50181 9.83366 4.18387 9.96535 3.94945 10.1998C3.71503 10.4342 3.58333 10.7521 3.58333 11.0837C3.58333 11.4152 3.71503 11.7331 3.94945 11.9675C4.18387 12.202 4.50181 12.3337 4.83333 12.3337ZM16.0833 15.667H1.91667V1.50033C1.91667 1.27931 1.82887 1.06735 1.67259 0.91107C1.51631 0.75479 1.30435 0.666992 1.08333 0.666992C0.86232 0.666992 0.650358 0.75479 0.494078 0.91107C0.337797 1.06735 0.25 1.27931 0.25 1.50033V16.5003C0.25 16.7213 0.337797 16.9333 0.494078 17.0896C0.650358 17.2459 0.86232 17.3337 1.08333 17.3337H16.0833C16.3043 17.3337 16.5163 17.2459 16.6726 17.0896C16.8289 16.9333 16.9167 16.7213 16.9167 16.5003C16.9167 16.2793 16.8289 16.0673 16.6726 15.9111C16.5163 15.7548 16.3043 15.667 16.0833 15.667Z" fill="white"/>
</svg>
