<svg width="78" height="77" viewBox="0 0 78 77" fill="none" xmlns="http://www.w3.org/2000/svg">
<path d="M38.9636 0C31.2471 0 23.6819 2.24046 17.3271 6.49734C10.8967 10.7542 5.90368 16.7288 2.95326 23.7489C0.00283052 30.769 -0.753696 38.5359 0.759343 46.0042C2.27238 53.4724 5.97933 60.3431 11.4263 65.7202C16.8732 71.0973 23.8332 74.7568 31.3984 76.2504C38.9636 77.744 46.8314 76.9972 53.9427 74.0846C61.054 71.172 67.1818 66.243 71.4183 59.895C75.6548 53.547 78 46.1535 78 38.5359C78 33.4576 77.0165 28.4539 75.0496 23.8236C73.0826 19.1186 70.2078 14.9364 66.5765 11.3517C62.9453 7.76693 58.6331 4.92902 53.9427 2.98728C49.1009 0.970867 44.0323 0 38.9636 0ZM38.9636 69.2303C32.7601 69.2303 26.7836 67.4379 21.6393 64.0772C16.495 60.7165 12.4854 55.8622 10.1402 50.261C7.79498 44.6599 7.18976 38.4613 8.4002 32.4867C9.61063 26.5121 12.5611 21.0603 16.9489 16.7288C21.3367 12.3972 26.8593 9.48462 32.9114 8.28971C38.9636 7.09479 45.2427 7.69225 50.9166 10.0074C56.5905 12.3225 61.5079 16.2807 64.9122 21.3591C68.3166 26.4374 70.1322 32.3373 70.1322 38.4613C70.1322 46.6016 66.8792 54.4432 60.9783 60.1937C55.1531 66.0189 47.2096 69.2303 38.9636 69.2303Z" fill="#06A77D"/>
<path d="M56.4886 24.5218C54.4734 22.4927 51.1893 22.4927 49.2487 24.5218L32.3806 41.5061L28.7234 37.8236C26.7082 35.7945 23.4241 35.7945 21.4836 37.8236C19.543 39.8527 19.4683 43.1594 21.4836 45.1133L28.798 52.4782C30.8133 54.5073 34.0973 54.5073 36.0379 52.4782C36.1125 52.403 36.1872 52.3279 36.1872 52.2527C36.2618 52.1776 36.3364 52.1024 36.4111 52.1024L56.4886 31.8867C58.5038 29.8576 58.5038 26.5509 56.4886 24.5218Z" fill="#06A77D"/>
</svg>
